<svg xmlns="http://www.w3.org/2000/svg" xmlns:xlink="http://www.w3.org/1999/xlink" width="500" zoomAndPan="magnify" viewBox="0 0 375 374.999991" height="500" preserveAspectRatio="xMidYMid meet" version="1.2"><defs><clipPath id="bff015130a"><path d="M 4.6875 0 L 370.6875 0 L 370.6875 370 L 4.6875 370 Z M 4.6875 0 "/></clipPath></defs><g id="6eb9158be2"><g clip-rule="nonzero" clip-path="url(#bff015130a)"><path style=" stroke:none;fill-rule:nonzero;fill:#278d46;fill-opacity:1;" d="M 370.675781 182.835938 C 370.675781 283.78125 288.757812 365.613281 187.710938 365.613281 C 180.34375 365.625 173 365.191406 165.683594 364.3125 C 158.367188 363.433594 151.128906 362.113281 143.972656 360.359375 C 136.816406 358.601562 129.792969 356.417969 122.902344 353.8125 C 116.011719 351.203125 109.304688 348.1875 102.777344 344.765625 C 102.707031 344.796875 102.632812 344.828125 102.558594 344.859375 L 47.410156 367.753906 C 30.152344 374.917969 12.746094 357.859375 19.585938 340.488281 L 39.46875 289.988281 C 33.847656 282.25 28.867188 274.117188 24.53125 265.59375 C 20.191406 257.070312 16.546875 248.261719 13.601562 239.164062 C 10.652344 230.066406 8.4375 220.792969 6.953125 211.347656 C 5.46875 201.902344 4.730469 192.398438 4.746094 182.835938 C 4.746094 81.890625 86.664062 0.0585938 187.710938 0.0585938 C 288.757812 0.0585938 370.675781 81.890625 370.675781 182.835938 Z M 370.675781 182.835938 "/></g><path style=" stroke:none;fill-rule:nonzero;fill:#ffffff;fill-opacity:1;" d="M 346.9375 182.835938 C 346.9375 185.441406 346.871094 188.042969 346.742188 190.640625 C 346.617188 193.242188 346.425781 195.835938 346.167969 198.425781 C 345.914062 201.019531 345.59375 203.601562 345.210938 206.175781 C 344.828125 208.75 344.382812 211.316406 343.875 213.867188 C 343.367188 216.421875 342.796875 218.960938 342.164062 221.484375 C 341.53125 224.011719 340.835938 226.519531 340.078125 229.007812 C 339.324219 231.5 338.507812 233.972656 337.628906 236.421875 C 336.75 238.875 335.8125 241.300781 334.816406 243.707031 C 333.816406 246.113281 332.761719 248.492188 331.648438 250.84375 C 330.535156 253.195312 329.363281 255.523438 328.132812 257.816406 C 326.90625 260.113281 325.621094 262.378906 324.28125 264.609375 C 322.941406 266.84375 321.550781 269.042969 320.101562 271.207031 C 318.652344 273.371094 317.152344 275.5 315.601562 277.589844 C 314.050781 279.679688 312.445312 281.730469 310.792969 283.742188 C 309.140625 285.757812 307.4375 287.726562 305.6875 289.65625 C 303.9375 291.585938 302.140625 293.46875 300.300781 295.308594 C 298.457031 297.148438 296.570312 298.945312 294.640625 300.691406 C 292.710938 302.441406 290.738281 304.140625 288.722656 305.792969 C 286.707031 307.445312 284.652344 309.042969 282.5625 310.59375 C 280.46875 312.144531 278.339844 313.644531 276.171875 315.089844 C 274.003906 316.535156 271.804688 317.929688 269.570312 319.269531 C 267.332031 320.605469 265.066406 321.886719 262.769531 323.117188 C 260.472656 324.34375 258.144531 325.511719 255.789062 326.625 C 253.433594 327.738281 251.050781 328.792969 248.644531 329.789062 C 246.238281 330.785156 243.804688 331.722656 241.351562 332.597656 C 238.898438 333.476562 236.425781 334.292969 233.933594 335.046875 C 231.4375 335.804688 228.925781 336.5 226.398438 337.128906 C 223.871094 337.761719 221.332031 338.332031 218.773438 338.839844 C 216.21875 339.347656 213.652344 339.792969 211.074219 340.175781 C 208.496094 340.558594 205.910156 340.875 203.316406 341.132812 C 200.726562 341.386719 198.125 341.578125 195.523438 341.707031 C 192.921875 341.832031 190.316406 341.898438 187.710938 341.898438 C 185.105469 341.898438 182.5 341.832031 179.898438 341.707031 C 177.296875 341.578125 174.699219 341.386719 172.105469 341.132812 C 169.511719 340.875 166.925781 340.558594 164.347656 340.175781 C 161.769531 339.792969 159.203125 339.347656 156.648438 338.839844 C 154.09375 338.332031 151.550781 337.761719 149.023438 337.128906 C 146.496094 336.5 143.984375 335.804688 141.492188 335.046875 C 138.996094 334.292969 136.523438 333.476562 134.070312 332.597656 C 131.617188 331.722656 129.1875 330.785156 126.777344 329.789062 C 124.371094 328.792969 121.988281 327.738281 119.632812 326.625 C 117.277344 325.511719 114.953125 324.34375 112.652344 323.117188 C 110.355469 321.886719 108.089844 320.605469 105.855469 319.269531 C 103.617188 317.929688 101.417969 316.535156 99.25 315.089844 C 97.085938 313.644531 94.953125 312.144531 92.863281 310.59375 C 90.769531 309.042969 88.714844 307.445312 86.699219 305.792969 C 84.6875 304.140625 82.714844 302.441406 80.78125 300.691406 C 78.851562 298.945312 76.964844 297.148438 75.121094 295.308594 C 73.28125 293.46875 71.484375 291.585938 69.734375 289.65625 C 67.984375 287.726562 66.28125 285.757812 64.628906 283.742188 C 62.976562 281.730469 61.375 279.679688 59.820312 277.589844 C 58.269531 275.5 56.769531 273.371094 55.320312 271.207031 C 53.875 269.042969 52.480469 266.84375 51.140625 264.609375 C 49.800781 262.378906 48.515625 260.113281 47.289062 257.816406 C 46.058594 255.523438 44.886719 253.195312 43.773438 250.84375 C 42.660156 248.492188 41.605469 246.113281 40.609375 243.707031 C 39.609375 241.300781 38.671875 238.875 37.792969 236.421875 C 36.917969 233.972656 36.101562 231.5 35.34375 229.007812 C 34.585938 226.519531 33.890625 224.011719 33.257812 221.484375 C 32.625 218.960938 32.054688 216.421875 31.546875 213.867188 C 31.039062 211.316406 30.59375 208.75 30.210938 206.175781 C 29.828125 203.601562 29.507812 201.019531 29.253906 198.425781 C 29 195.835938 28.808594 193.242188 28.679688 190.640625 C 28.550781 188.042969 28.488281 185.441406 28.488281 182.835938 C 28.488281 180.234375 28.550781 177.632812 28.679688 175.03125 C 28.808594 172.429688 29 169.835938 29.253906 167.246094 C 29.507812 164.65625 29.828125 162.074219 30.210938 159.496094 C 30.59375 156.921875 31.039062 154.359375 31.546875 151.804688 C 32.054688 149.253906 32.625 146.710938 33.257812 144.1875 C 33.890625 141.664062 34.585938 139.15625 35.34375 136.664062 C 36.101562 134.171875 36.917969 131.703125 37.792969 129.25 C 38.671875 126.800781 39.609375 124.371094 40.609375 121.964844 C 41.605469 119.5625 42.660156 117.183594 43.773438 114.828125 C 44.886719 112.476562 46.058594 110.152344 47.289062 107.855469 C 48.515625 105.558594 49.800781 103.296875 51.140625 101.0625 C 52.480469 98.828125 53.875 96.632812 55.320312 94.464844 C 56.769531 92.300781 58.269531 90.175781 59.820312 88.082031 C 61.375 85.992188 62.976562 83.941406 64.628906 81.929688 C 66.28125 79.917969 67.984375 77.945312 69.734375 76.015625 C 71.484375 74.089844 73.28125 72.203125 75.121094 70.363281 C 76.964844 68.523438 78.851562 66.726562 80.78125 64.980469 C 82.714844 63.230469 84.6875 61.53125 86.699219 59.878906 C 88.714844 58.230469 90.769531 56.628906 92.863281 55.078125 C 94.953125 53.527344 97.085938 52.027344 99.25 50.582031 C 101.417969 49.136719 103.617188 47.742188 105.855469 46.40625 C 108.089844 45.066406 110.355469 43.785156 112.652344 42.558594 C 114.953125 41.328125 117.277344 40.160156 119.632812 39.046875 C 121.988281 37.933594 124.371094 36.878906 126.777344 35.882812 C 129.1875 34.886719 131.617188 33.949219 134.070312 33.074219 C 136.523438 32.195312 138.996094 31.378906 141.492188 30.625 C 143.984375 29.867188 146.496094 29.175781 149.023438 28.542969 C 151.550781 27.910156 154.09375 27.339844 156.648438 26.832031 C 159.203125 26.324219 161.769531 25.878906 164.347656 25.496094 C 166.925781 25.113281 169.511719 24.796875 172.105469 24.542969 C 174.699219 24.285156 177.296875 24.09375 179.898438 23.96875 C 182.5 23.839844 185.105469 23.773438 187.710938 23.773438 C 190.316406 23.773438 192.921875 23.839844 195.523438 23.96875 C 198.125 24.09375 200.726562 24.285156 203.316406 24.542969 C 205.910156 24.796875 208.496094 25.113281 211.074219 25.496094 C 213.652344 25.878906 216.21875 26.324219 218.773438 26.832031 C 221.332031 27.339844 223.871094 27.910156 226.398438 28.542969 C 228.925781 29.175781 231.4375 29.867188 233.933594 30.625 C 236.425781 31.378906 238.898438 32.195312 241.351562 33.074219 C 243.804688 33.949219 246.238281 34.886719 248.644531 35.882812 C 251.050781 36.878906 253.433594 37.933594 255.789062 39.046875 C 258.144531 40.160156 260.472656 41.328125 262.769531 42.558594 C 265.066406 43.785156 267.332031 45.066406 269.570312 46.40625 C 271.804688 47.742188 274.003906 49.136719 276.171875 50.582031 C 278.339844 52.027344 280.46875 53.527344 282.5625 55.078125 C 284.652344 56.628906 286.707031 58.230469 288.722656 59.878906 C 290.738281 61.53125 292.710938 63.230469 294.640625 64.980469 C 296.570312 66.726562 298.457031 68.523438 300.300781 70.363281 C 302.140625 72.203125 303.9375 74.089844 305.6875 76.015625 C 307.4375 77.945312 309.140625 79.917969 310.792969 81.929688 C 312.445312 83.941406 314.050781 85.992188 315.601562 88.082031 C 317.152344 90.175781 318.652344 92.300781 320.101562 94.464844 C 321.550781 96.632812 322.941406 98.828125 324.28125 101.0625 C 325.621094 103.296875 326.90625 105.558594 328.132812 107.855469 C 329.363281 110.152344 330.535156 112.476562 331.648438 114.828125 C 332.761719 117.183594 333.816406 119.5625 334.816406 121.964844 C 335.8125 124.371094 336.75 126.800781 337.628906 129.25 C 338.507812 131.703125 339.324219 134.171875 340.078125 136.664062 C 340.835938 139.15625 341.53125 141.664062 342.164062 144.1875 C 342.796875 146.710938 343.367188 149.253906 343.875 151.804688 C 344.382812 154.359375 344.828125 156.921875 345.210938 159.496094 C 345.59375 162.074219 345.914062 164.65625 346.167969 167.246094 C 346.425781 169.835938 346.617188 172.429688 346.742188 175.03125 C 346.871094 177.632812 346.9375 180.234375 346.9375 182.835938 Z M 346.9375 182.835938 "/><path style=" stroke:none;fill-rule:nonzero;fill:#278d46;fill-opacity:1;" d="M 324.632812 182.835938 C 324.632812 185.074219 324.578125 187.3125 324.46875 189.546875 C 324.359375 191.785156 324.195312 194.015625 323.976562 196.242188 C 323.753906 198.472656 323.480469 200.691406 323.152344 202.90625 C 322.824219 205.121094 322.441406 207.324219 322.003906 209.519531 C 321.566406 211.71875 321.074219 213.902344 320.53125 216.070312 C 319.988281 218.242188 319.390625 220.398438 318.738281 222.542969 C 318.089844 224.683594 317.386719 226.808594 316.628906 228.917969 C 315.875 231.023438 315.070312 233.113281 314.210938 235.179688 C 313.355469 237.25 312.445312 239.296875 311.488281 241.320312 C 310.53125 243.34375 309.523438 245.339844 308.46875 247.316406 C 307.410156 249.289062 306.304688 251.238281 305.15625 253.15625 C 304.003906 255.078125 302.804688 256.96875 301.558594 258.828125 C 300.3125 260.691406 299.023438 262.519531 297.6875 264.316406 C 296.355469 266.117188 294.976562 267.878906 293.554688 269.609375 C 292.132812 271.339844 290.667969 273.035156 289.164062 274.695312 C 287.660156 276.351562 286.117188 277.972656 284.53125 279.554688 C 282.945312 281.140625 281.324219 282.683594 279.664062 284.1875 C 278.003906 285.6875 276.308594 287.152344 274.574219 288.570312 C 272.84375 289.992188 271.078125 291.367188 269.277344 292.703125 C 267.476562 294.035156 265.644531 295.324219 263.78125 296.566406 C 261.917969 297.8125 260.027344 299.007812 258.105469 300.160156 C 256.183594 301.308594 254.234375 302.414062 252.257812 303.46875 C 250.28125 304.523438 248.28125 305.53125 246.253906 306.488281 C 244.226562 307.445312 242.179688 308.351562 240.109375 309.207031 C 238.039062 310.0625 235.949219 310.871094 233.839844 311.625 C 231.730469 312.378906 229.601562 313.078125 227.457031 313.730469 C 225.3125 314.378906 223.15625 314.976562 220.980469 315.519531 C 218.808594 316.0625 216.621094 316.554688 214.425781 316.992188 C 212.226562 317.429688 210.019531 317.808594 207.800781 318.140625 C 205.585938 318.46875 203.363281 318.742188 201.132812 318.960938 C 198.902344 319.179688 196.667969 319.34375 194.429688 319.453125 C 192.191406 319.5625 189.953125 319.621094 187.710938 319.621094 C 185.46875 319.621094 183.230469 319.5625 180.992188 319.453125 C 178.753906 319.34375 176.519531 319.179688 174.289062 318.960938 C 172.0625 318.742188 169.835938 318.46875 167.621094 318.140625 C 165.402344 317.808594 163.195312 317.429688 161 316.992188 C 158.800781 316.554688 156.617188 316.0625 154.441406 315.519531 C 152.269531 314.976562 150.109375 314.378906 147.964844 313.730469 C 145.820312 313.078125 143.691406 312.378906 141.582031 311.625 C 139.472656 310.871094 137.382812 310.0625 135.3125 309.207031 C 133.242188 308.351562 131.195312 307.445312 129.167969 306.488281 C 127.144531 305.53125 125.140625 304.523438 123.167969 303.46875 C 121.191406 302.414062 119.242188 301.308594 117.320312 300.160156 C 115.398438 299.007812 113.503906 297.8125 111.640625 296.566406 C 109.777344 295.324219 107.945312 294.035156 106.144531 292.703125 C 104.347656 291.367188 102.582031 289.992188 100.847656 288.570312 C 99.117188 287.152344 97.417969 285.6875 95.757812 284.1875 C 94.097656 282.683594 92.476562 281.140625 90.890625 279.554688 C 89.308594 277.972656 87.761719 276.351562 86.257812 274.695312 C 84.753906 273.035156 83.289062 271.339844 81.867188 269.609375 C 80.445312 267.878906 79.070312 266.117188 77.734375 264.316406 C 76.398438 262.519531 75.109375 260.691406 73.863281 258.828125 C 72.617188 256.96875 71.421875 255.078125 70.269531 253.15625 C 69.117188 251.238281 68.011719 249.289062 66.957031 247.316406 C 65.898438 245.339844 64.890625 243.34375 63.933594 241.320312 C 62.976562 239.296875 62.070312 237.25 61.210938 235.179688 C 60.351562 233.113281 59.546875 231.023438 58.792969 228.917969 C 58.039062 226.808594 57.335938 224.683594 56.683594 222.542969 C 56.035156 220.398438 55.4375 218.242188 54.890625 216.070312 C 54.347656 213.902344 53.855469 211.71875 53.417969 209.519531 C 52.980469 207.324219 52.597656 205.121094 52.269531 202.90625 C 51.941406 200.691406 51.667969 198.472656 51.449219 196.242188 C 51.226562 194.015625 51.0625 191.785156 50.953125 189.546875 C 50.84375 187.3125 50.789062 185.074219 50.789062 182.835938 C 50.789062 180.597656 50.84375 178.359375 50.953125 176.125 C 51.0625 173.890625 51.226562 171.65625 51.449219 169.429688 C 51.667969 167.203125 51.941406 164.980469 52.269531 162.765625 C 52.597656 160.550781 52.980469 158.347656 53.417969 156.152344 C 53.855469 153.957031 54.347656 151.773438 54.890625 149.601562 C 55.4375 147.429688 56.035156 145.273438 56.683594 143.128906 C 57.335938 140.988281 58.039062 138.863281 58.792969 136.753906 C 59.546875 134.648438 60.351562 132.558594 61.210938 130.492188 C 62.070312 128.421875 62.976562 126.378906 63.933594 124.355469 C 64.890625 122.332031 65.898438 120.332031 66.957031 118.355469 C 68.011719 116.382812 69.117188 114.4375 70.269531 112.515625 C 71.421875 110.597656 72.617188 108.707031 73.863281 106.84375 C 75.109375 104.984375 76.398438 103.152344 77.734375 101.355469 C 79.070312 99.558594 80.445312 97.792969 81.867188 96.0625 C 83.289062 94.332031 84.753906 92.636719 86.257812 90.980469 C 87.761719 89.320312 89.308594 87.699219 90.890625 86.117188 C 92.476562 84.535156 94.097656 82.988281 95.757812 81.488281 C 97.417969 79.984375 99.117188 78.523438 100.847656 77.101562 C 102.582031 75.679688 104.347656 74.304688 106.144531 72.972656 C 107.945312 71.636719 109.777344 70.347656 111.640625 69.105469 C 113.503906 67.863281 115.398438 66.664062 117.320312 65.515625 C 119.242188 64.363281 121.191406 63.261719 123.167969 62.203125 C 125.140625 61.148438 127.144531 60.144531 129.167969 59.1875 C 131.195312 58.230469 133.242188 57.320312 135.3125 56.464844 C 137.382812 55.609375 139.472656 54.804688 141.582031 54.050781 C 143.691406 53.296875 145.820312 52.59375 147.964844 51.941406 C 150.109375 51.292969 152.269531 50.695312 154.441406 50.152344 C 156.617188 49.609375 158.800781 49.117188 161 48.683594 C 163.195312 48.246094 165.402344 47.863281 167.621094 47.535156 C 169.835938 47.207031 172.0625 46.929688 174.289062 46.710938 C 176.519531 46.492188 178.753906 46.328125 180.992188 46.21875 C 183.230469 46.109375 185.46875 46.054688 187.710938 46.054688 C 189.953125 46.054688 192.191406 46.109375 194.429688 46.21875 C 196.667969 46.328125 198.902344 46.492188 201.132812 46.710938 C 203.363281 46.929688 205.585938 47.207031 207.800781 47.535156 C 210.019531 47.863281 212.226562 48.246094 214.425781 48.683594 C 216.621094 49.117188 218.808594 49.609375 220.980469 50.152344 C 223.15625 50.695312 225.3125 51.292969 227.457031 51.941406 C 229.601562 52.59375 231.730469 53.296875 233.839844 54.050781 C 235.949219 54.804688 238.039062 55.609375 240.109375 56.464844 C 242.179688 57.320312 244.226562 58.230469 246.253906 59.1875 C 248.28125 60.144531 250.28125 61.148438 252.257812 62.203125 C 254.234375 63.261719 256.183594 64.363281 258.105469 65.515625 C 260.027344 66.664062 261.917969 67.863281 263.78125 69.105469 C 265.644531 70.347656 267.476562 71.636719 269.277344 72.972656 C 271.078125 74.304688 272.84375 75.679688 274.574219 77.101562 C 276.308594 78.523438 278.003906 79.984375 279.664062 81.488281 C 281.324219 82.988281 282.945312 84.535156 284.53125 86.117188 C 286.117188 87.699219 287.660156 89.320312 289.164062 90.980469 C 290.667969 92.636719 292.132812 94.332031 293.554688 96.0625 C 294.976562 97.792969 296.355469 99.558594 297.6875 101.355469 C 299.023438 103.152344 300.3125 104.984375 301.558594 106.84375 C 302.804688 108.707031 304.003906 110.597656 305.15625 112.515625 C 306.304688 114.4375 307.410156 116.382812 308.46875 118.355469 C 309.523438 120.332031 310.53125 122.332031 311.488281 124.355469 C 312.445312 126.378906 313.355469 128.421875 314.210938 130.492188 C 315.070312 132.558594 315.875 134.648438 316.628906 136.753906 C 317.386719 138.863281 318.089844 140.988281 318.738281 143.128906 C 319.390625 145.273438 319.988281 147.429688 320.53125 149.601562 C 321.074219 151.773438 321.566406 153.957031 322.003906 156.152344 C 322.441406 158.347656 322.824219 160.550781 323.152344 162.765625 C 323.480469 164.980469 323.753906 167.203125 323.976562 169.429688 C 324.195312 171.65625 324.359375 173.890625 324.46875 176.125 C 324.578125 178.359375 324.632812 180.597656 324.632812 182.835938 Z M 324.632812 182.835938 "/><path style=" stroke:none;fill-rule:nonzero;fill:#ffffff;fill-opacity:1;" d="M 170.128906 138.152344 L 164.800781 115.679688 C 164.648438 115.039062 164.464844 114.410156 164.246094 113.789062 C 164.027344 113.167969 163.777344 112.5625 163.496094 111.96875 C 163.214844 111.375 162.902344 110.796875 162.558594 110.234375 C 162.214844 109.671875 161.84375 109.132812 161.441406 108.609375 C 161.042969 108.085938 160.617188 107.589844 160.164062 107.109375 C 159.710938 106.632812 159.234375 106.179688 158.734375 105.753906 C 158.234375 105.328125 157.710938 104.929688 157.167969 104.554688 C 156.625 104.183594 156.066406 103.839844 155.484375 103.527344 C 154.90625 103.214844 154.3125 102.933594 153.703125 102.683594 C 153.097656 102.429688 152.476562 102.214844 151.84375 102.027344 C 151.214844 101.84375 150.574219 101.691406 149.925781 101.574219 C 149.277344 101.453125 148.625 101.371094 147.96875 101.320312 C 147.3125 101.273438 146.65625 101.257812 146 101.277344 C 145.339844 101.296875 144.6875 101.351562 144.035156 101.4375 C 143.382812 101.527344 142.734375 101.648438 142.097656 101.808594 C 141.457031 101.964844 140.828125 102.152344 140.207031 102.375 L 127.917969 106.796875 C 126.925781 107.152344 125.96875 107.59375 125.050781 108.113281 C 124.128906 108.632812 123.261719 109.222656 122.441406 109.890625 C 121.621094 110.554688 120.863281 111.285156 120.167969 112.082031 C 119.472656 112.875 118.847656 113.722656 118.296875 114.621094 C 117.742188 115.519531 117.269531 116.460938 116.875 117.4375 C 116.480469 118.417969 116.171875 119.421875 115.949219 120.453125 C 115.726562 121.484375 115.589844 122.527344 115.542969 123.582031 C 115.496094 124.636719 115.535156 125.6875 115.667969 126.734375 C 119.949219 161.496094 139.660156 245.585938 230.320312 264.0625 C 231.214844 264.242188 232.117188 264.359375 233.03125 264.410156 C 233.941406 264.460938 234.851562 264.445312 235.761719 264.363281 C 236.671875 264.28125 237.570312 264.132812 238.457031 263.921875 C 239.347656 263.707031 240.214844 263.429688 241.0625 263.089844 C 241.910156 262.75 242.726562 262.351562 243.515625 261.890625 C 244.304688 261.433594 245.058594 260.917969 245.773438 260.347656 C 246.484375 259.78125 247.15625 259.164062 247.777344 258.496094 C 248.402344 257.828125 248.972656 257.121094 249.492188 256.371094 L 256.546875 246.191406 C 256.894531 245.6875 257.21875 245.167969 257.519531 244.632812 C 257.816406 244.09375 258.089844 243.546875 258.332031 242.984375 C 258.578125 242.421875 258.792969 241.847656 258.980469 241.261719 C 259.167969 240.679688 259.328125 240.085938 259.457031 239.488281 C 259.585938 238.886719 259.6875 238.285156 259.757812 237.675781 C 259.828125 237.066406 259.867188 236.453125 259.878906 235.839844 C 259.886719 235.226562 259.867188 234.613281 259.816406 234.003906 C 259.765625 233.390625 259.6875 232.785156 259.578125 232.179688 C 259.46875 231.578125 259.328125 230.980469 259.160156 230.390625 C 258.992188 229.800781 258.792969 229.222656 258.570312 228.652344 C 258.34375 228.082031 258.089844 227.523438 257.808594 226.976562 C 257.527344 226.429688 257.222656 225.902344 256.890625 225.386719 C 256.558594 224.871094 256.199219 224.371094 255.820312 223.890625 C 255.4375 223.410156 255.03125 222.949219 254.605469 222.507812 C 254.179688 222.070312 253.730469 221.648438 253.261719 221.253906 C 252.796875 220.855469 252.308594 220.484375 251.804688 220.132812 L 251.683594 220.050781 L 236.183594 209.507812 C 235.351562 208.941406 234.476562 208.445312 233.5625 208.019531 C 232.648438 207.59375 231.707031 207.242188 230.738281 206.96875 C 229.765625 206.695312 228.78125 206.5 227.777344 206.382812 C 226.777344 206.269531 225.773438 206.234375 224.765625 206.28125 C 223.757812 206.328125 222.761719 206.457031 221.773438 206.664062 C 220.785156 206.871094 219.824219 207.15625 218.882812 207.519531 C 217.941406 207.878906 217.035156 208.316406 216.164062 208.824219 C 215.292969 209.335938 214.472656 209.910156 213.695312 210.550781 C 212.921875 211.191406 212.101562 211.761719 211.238281 212.269531 C 210.375 212.777344 209.476562 213.210938 208.542969 213.574219 C 207.609375 213.9375 206.648438 214.226562 205.671875 214.433594 C 204.691406 214.644531 203.699219 214.773438 202.699219 214.824219 C 201.695312 214.875 200.699219 214.84375 199.703125 214.734375 C 198.707031 214.625 197.722656 214.4375 196.757812 214.167969 C 195.792969 213.902344 194.855469 213.558594 193.941406 213.140625 C 193.03125 212.722656 192.160156 212.234375 191.328125 211.675781 C 181.898438 205.332031 169.136719 194.808594 160.847656 180.21875 C 160.382812 179.40625 159.980469 178.5625 159.644531 177.6875 C 159.304688 176.816406 159.035156 175.921875 158.828125 175.007812 C 158.625 174.09375 158.488281 173.171875 158.421875 172.234375 C 158.355469 171.300781 158.359375 170.367188 158.433594 169.433594 C 158.507812 168.5 158.652344 167.578125 158.863281 166.667969 C 159.074219 165.753906 159.351562 164.863281 159.699219 163.992188 C 160.042969 163.121094 160.449219 162.28125 160.921875 161.472656 C 161.394531 160.664062 161.921875 159.890625 162.507812 159.160156 L 166.496094 154.210938 C 167.390625 153.097656 168.148438 151.898438 168.769531 150.617188 C 169.390625 149.332031 169.859375 147.992188 170.171875 146.601562 C 170.488281 145.210938 170.640625 143.800781 170.636719 142.375 C 170.628906 140.949219 170.460938 139.542969 170.128906 138.152344 Z M 170.128906 138.152344 "/></g></svg>